REM DIRINDEX 1\2,1\3,1\4,1\5
REM DIRNAME cjc004,folder01,folder02,folder03,folder04
TITLE ""
FILE "1Q_j_2171-2184.mp3" MP3
  TRACK 01 AUDIO
    TITLE "3:cjc004_0212"
    INDEX 01 00:00:00
  TRACK 02 AUDIO
    TITLE "0:"
    INDEX 01 00:01:17
  TRACK 03 AUDIO
    TITLE "4:cjc004_0213"
    INDEX 01 00:01:48
  TRACK 04 AUDIO
    TITLE "0:"
    INDEX 01 00:03:19
  TRACK 05 AUDIO
    TITLE "5:cjc004_0214"
    INDEX 01 00:03:49
  TRACK 06 AUDIO
    TITLE "0:"
    INDEX 01 00:07:27
  TRACK 07 AUDIO
    TITLE "3:cjc004_0215"
    INDEX 01 00:08:05
  TRACK 08 AUDIO
    TITLE "0:"
    INDEX 01 00:09:28
  TRACK 09 AUDIO
    TITLE "4:cjc004_0216"
    INDEX 01 00:09:55
  TRACK 10 AUDIO
    TITLE "0:"
    INDEX 01 00:11:31
  TRACK 11 AUDIO
    TITLE "5:cjc004_0217"
    INDEX 01 00:11:60
  TRACK 12 AUDIO
    TITLE "0:"
    INDEX 01 00:16:53
  TRACK 13 AUDIO
    TITLE "3:cjc004_0218"
    INDEX 01 00:17:43
  TRACK 14 AUDIO
    TITLE "0:"
    INDEX 01 00:18:60
  TRACK 15 AUDIO
    TITLE "4:cjc004_0219"
    INDEX 01 00:19:11
  TRACK 16 AUDIO
    TITLE "0:"
    INDEX 01 00:20:32
  TRACK 17 AUDIO
    TITLE "5:cjc004_0220"
    INDEX 01 00:20:59
  TRACK 18 AUDIO
    TITLE "0:"
    INDEX 01 00:25:01
  TRACK 19 AUDIO
    TITLE "3:cjc004_0221"
    INDEX 01 00:25:54
  TRACK 20 AUDIO
    TITLE "0:"
    INDEX 01 00:27:22
  TRACK 21 AUDIO
    TITLE "4:cjc004_0222"
    INDEX 01 00:27:63
  TRACK 22 AUDIO
    TITLE "0:"
    INDEX 01 00:29:23
  TRACK 23 AUDIO
    TITLE "5:cjc004_0223"
    INDEX 01 00:29:48
  TRACK 24 AUDIO
    TITLE "0:"
    INDEX 01 00:34:65
  TRACK 25 AUDIO
    TITLE "3:cjc004_0224"
    INDEX 01 00:35:51
  TRACK 26 AUDIO
    TITLE "0:"
    INDEX 01 00:36:56
  TRACK 27 AUDIO
    TITLE "4:cjc004_0225"
    INDEX 01 00:37:12
  TRACK 28 AUDIO
    TITLE "0:"
    INDEX 01 00:39:05
  TRACK 29 AUDIO
    TITLE "5:cjc004_0226"
    INDEX 01 00:39:31
  TRACK 30 AUDIO
    TITLE "0:"
    INDEX 01 00:45:16
  TRACK 31 AUDIO
    TITLE "3:cjc004_0227"
    INDEX 01 00:45:67
  TRACK 32 AUDIO
    TITLE "0:"
    INDEX 01 00:47:05
  TRACK 33 AUDIO
    TITLE "4:cjc004_0228"
    INDEX 01 00:47:34
  TRACK 34 AUDIO
    TITLE "0:"
    INDEX 01 00:48:61
  TRACK 35 AUDIO
    TITLE "5:cjc004_0229"
    INDEX 01 00:49:10
  TRACK 36 AUDIO
    TITLE "0:"
    INDEX 01 00:55:42
  TRACK 37 AUDIO
    TITLE "3:cjc004_0230"
    INDEX 01 00:56:20
  TRACK 38 AUDIO
    TITLE "0:"
    INDEX 01 00:57:41
  TRACK 39 AUDIO
    TITLE "4:cjc004_0231"
    INDEX 01 00:58:01
  TRACK 40 AUDIO
    TITLE "0:"
    INDEX 01 00:59:24
  TRACK 41 AUDIO
    TITLE "5:cjc004_0232"
    INDEX 01 00:59:47
  TRACK 42 AUDIO
    TITLE "0:"
    INDEX 01 01:03:45
  TRACK 43 AUDIO
    TITLE "3:cjc004_0233"
    INDEX 01 01:04:25
  TRACK 44 AUDIO
    TITLE "0:"
    INDEX 01 01:05:40
  TRACK 45 AUDIO
    TITLE "4:cjc004_0234"
    INDEX 01 01:05:69
  TRACK 46 AUDIO
    TITLE "0:"
    INDEX 01 01:07:39
  TRACK 47 AUDIO
    TITLE "5:cjc004_0235"
    INDEX 01 01:07:66
  TRACK 48 AUDIO
    TITLE "0:"
    INDEX 01 01:13:47
  TRACK 49 AUDIO
    TITLE "3:cjc004_0236"
    INDEX 01 01:14:29
  TRACK 50 AUDIO
    TITLE "0:"
    INDEX 01 01:16:12
  TRACK 51 AUDIO
    TITLE "4:cjc004_0237"
    INDEX 01 01:16:50
  TRACK 52 AUDIO
    TITLE "0:"
    INDEX 01 01:17:69
  TRACK 53 AUDIO
    TITLE "5:cjc004_0238"
    INDEX 01 01:18:15
  TRACK 54 AUDIO
    TITLE "0:"
    INDEX 01 01:22:01
  TRACK 55 AUDIO
    TITLE "3:cjc004_0239"
    INDEX 01 01:22:58
  TRACK 56 AUDIO
    TITLE "0:"
    INDEX 01 01:23:71
  TRACK 57 AUDIO
    TITLE "4:cjc004_0240"
    INDEX 01 01:24:24
  TRACK 58 AUDIO
    TITLE "0:"
    INDEX 01 01:26:01
  TRACK 59 AUDIO
    TITLE "5:cjc004_0241"
    INDEX 01 01:26:29
  TRACK 60 AUDIO
    TITLE "0:"
    INDEX 01 01:30:20
  TRACK 61 AUDIO
    TITLE "3:cjc004_0242"
    INDEX 01 01:31:00
  TRACK 62 AUDIO
    TITLE "0:"
    INDEX 01 01:32:29
  TRACK 63 AUDIO
    TITLE "4:cjc004_0243"
    INDEX 01 01:32:60
  TRACK 64 AUDIO
    TITLE "0:"
    INDEX 01 01:34:06
  TRACK 65 AUDIO
    TITLE "5:cjc004_0244"
    INDEX 01 01:34:36
  TRACK 66 AUDIO
    TITLE "0:"
    INDEX 01 01:38:20
  TRACK 67 AUDIO
    TITLE "3:cjc004_0245"
    INDEX 01 01:39:00
  TRACK 68 AUDIO
    TITLE "0:"
    INDEX 01 01:40:21
  TRACK 69 AUDIO
    TITLE "4:cjc004_0246"
    INDEX 01 01:40:52
  TRACK 70 AUDIO
    TITLE "0:"
    INDEX 01 01:42:06
  TRACK 71 AUDIO
    TITLE "5:cjc004_0247"
    INDEX 01 01:42:33
  TRACK 72 AUDIO
    TITLE "0:"
    INDEX 01 01:47:52
  TRACK 73 AUDIO
    TITLE "3:cjc004_0248"
    INDEX 01 01:48:30
  TRACK 74 AUDIO
    TITLE "0:"
    INDEX 01 01:49:45
  TRACK 75 AUDIO
    TITLE "4:cjc004_0249"
    INDEX 01 01:49:73
  TRACK 76 AUDIO
    TITLE "0:"
    INDEX 01 01:51:66
  TRACK 77 AUDIO
    TITLE "5:cjc004_0250"
    INDEX 01 01:52:20
  TRACK 78 AUDIO
    TITLE "0:"
    INDEX 01 01:56:43
  TRACK 79 AUDIO
    TITLE "3:cjc004_0251"
    INDEX 01 01:57:29
  TRACK 80 AUDIO
    TITLE "0:"
    INDEX 01 01:58:62
  TRACK 81 AUDIO
    TITLE "4:cjc004_0252"
    INDEX 01 01:59:20
  TRACK 82 AUDIO
    TITLE "0:"
    INDEX 01 02:00:14
  TRACK 83 AUDIO
    TITLE "5:cjc004_0253"
    INDEX 01 02:00:49
  TRACK 84 AUDIO
    TITLE "0:"
    INDEX 01 02:04:23
